# xmcd
#
# Track frame offsets:
#	150
#	19726
#	40549
#	64745
#	82932
#	104118
#	127501
#	151645
#	170299
#	194313
#	208668
#
# Disc length: 3045 seconds
#
# Revision: 0
# Processed by: cddbd v1.4PL0 Copyright (c) Steve Scherf et al.
# Submitted via: dBpowerAMP V4.0
#
DISCID=7d0be30b
DTITLE=Pat Brown - New Tricks
DYEAR=2002
DGENRE=Blues
TTITLE0=New Tricks
TTITLE1=My Old Man and Mrs. Jones
TTITLE2=You Got to Know
TTITLE3=Honey Cost Money
TTITLE4=99.9 Percent Chance
TTITLE5=I'm In Love With Your Man
TTITLE6=Two Week Notice
TTITLE7=U-Me and She
TTITLE8=A White Dress, A Blue Lady
TTITLE9=Love On Loan
TTITLE10=There'll Come a Time
EXTD=
EXTT0=
EXTT1=
EXTT2=
EXTT3=
EXTT4=
EXTT5=
EXTT6=
EXTT7=
EXTT8=
EXTT9=
EXTT10=
PLAYORDER=
